:FULLY-SPECIFIED
:DEGREES
211
root -0.567874014377594 -0.567874014377594 -0.567874014377594 -0.5678755879732001 -0.5678755879732001 -0.5678755879732001
lhipjoint -9.671654586443837e-08 -1.5341245206083327e-07 1.0672170578144923e-06
lfemur -10.140072374817896 -4.472201682188779 -13.654476202808965
ltibia 11.235430665786488 -7.091034957881683e-07 1.1145709879116177e-06
lfoot -15.454996884068013 -8.395743270427933e-07 14.956543338818822
ltoes -49.727021497548584 8.245666889450268e-08 1.027275397680299e-06
rhipjoint 1.1005675908711953e-07 6.870210827458292e-07 -1.494104084495789e-06
rfemur 3.3127113300083537 5.612380101377817 9.823940484178442
rtibia -17.998574698906392 -1.2925713158817847e-06 -8.46299698972279e-07
rfoot -8.841622677747207 -1.6392120828388836e-08 -18.15102452118108
rtoes 2.4379813827226915 1.0229410904270253e-06 2.775582032759628e-07
lowerback 21.2063235237314 0.22054671491821917 0.67942645094126
upperback 0.6432260214533693 0.6484307323226247 1.2592275492053024
thorax -11.776282610308533 0.31565033562254285 0.8784990377687458
lowerneck -11.457395592112624 -2.029057957114028 -1.9248847656666397
upperneck 23.5797988923852 -3.0151462414105206 2.3060364286666197
head 9.370881229926802 -1.331763944747426 0.7745436119620046
lclavicle -1.4085775951116125e-07 5.4855408257763046e-08 -1.0938974842598547e-06
lhumerus -28.601171262618273 8.940742382982432 -1.4214875508405351
lradius 13.524881901044436 -7.171870917888262e-07 9.814921018181926e-07
lwrist -1.7608580707410074e-06 -59.273392485367815 4.2458725664666134e-07
lhand -4.562975323145072 2.6246558075710764e-07 -26.656099019086014
lfingers 7.125022823272814 9.845282338726802e-08 3.18924141240953e-07
lthumb 21.213298854421275 -1.2803152392500461e-07 2.20318914769186
rclavicle 1.398304276268298e-07 4.3880174074018323e-07 -1.3740421654916584e-06
rhumerus -38.22812140717073 0.8238035765863713 -1.119953908891513
rradius 23.485400555413744 -5.032897514617892e-07 -2.6914568194347923e-06
rwrist 2.3873050061340525e-07 28.672294022445616 5.3366450666964e-07
rhand -6.972260092956778 2.0321462048512455e-07 -36.68780446630613
rfingers 7.125022396385991 5.1024341088409163e-08 -3.1892353057445414e-07
rthumb 18.897492480477187 1.5447771905696147e-06 -65.78980959509936
212
root -0.567874014377594 -0.567874014377594 -0.567874014377594 -0.5678755879732001 -0.5678755879732001 -0.5678755879732001
lhipjoint -9.671654586443837e-08 -1.5341245206083327e-07 1.0672170578144923e-06
lfemur -7.489671255134162 -4.7959253280907035 -11.954933038239385
ltibia 7.057742898627249 -6.099196537129127e-07 1.0214640917218285e-06
lfoot -13.817910676816322 7.529349488533541e-07 14.784806769875313
ltoes -45.50919526995812 4.0796033454946816e-07 2.1332791417241768e-06
rhipjoint 1.1005675908711953e-07 6.870210827458292e-07 -1.494104084495789e-06
rfemur 5.0766081100509695 5.140168569806639 9.192584264285497
rtibia -20.786825257740265 -1.149163209515964e-06 -1.7578375106822402e-06
rfoot -6.837097479471396 2.9661612763839213e-06 -16.823181105017238
rtoes 3.9593099708078285 -1.4361844026357167e-06 2.997799500577874e-07
lowerback 19.326114171652165 0.01898791588747553 1.4313621901113753
upperback 0.25434261099336125 0.5591739269706039 0.7871248204131681
thorax -11.355311584777612 0.20855295609652966 -0.019766562455436943
lowerneck -11.457395592112624 -2.029057957114028 -1.9248847656666397
upperneck 23.5797988923852 -3.0151462414105206 2.3060364286666197
head 9.370881229926802 -1.331763944747426 0.7745436119620046
lclavicle -1.4085775951116125e-07 5.4855408257763046e-08 -1.0938974842598547e-06
lhumerus -27.80947208309105 10.181555528741969 -9.962772616795412
lradius 3.8012320726570534 -5.44107921577319e-07 1.7587597188732398e-07
lwrist -1.689607132100237e-06 -58.43508238739713 4.074052132575843e-07
lhand -4.562975323145072 2.6246558075710764e-07 -26.656099019086014
lfingers 7.125022823272814 9.845282338726802e-08 3.18924141240953e-07
lthumb 21.213298854421275 -1.2803152392500461e-07 2.20318914769186
rclavicle 1.398304276268298e-07 4.3880174074018323e-07 -1.3740421654916584e-06
rhumerus -42.11949532828585 4.122704744340635 3.2361318893644055
rradius 14.887350107432008 1.949459162020055e-07 -1.88182499749642e-06
rwrist 2.336034210224486e-07 28.201214167842544 5.221988869317759e-07
rhand -6.972260092956778 2.0321462048512455e-07 -36.68780446630613
rfingers 7.125022396385991 5.1024341088409163e-08 -3.1892353057445414e-07
rthumb 18.897492480477187 1.5447771905696147e-06 -65.78980959509936
213
root -0.567874014377594 -0.567874014377594 -0.567874014377594 -0.5678755879732001 -0.5678755879732001 -0.5678755879732001
lhipjoint -9.671654586443837e-08 -1.5341245206083327e-07 1.0672170578144923e-06
lfemur -5.416763483548652 -4.573904052703916 -9.553781743068695
ltibia 4.007230151137815 -1.5062190971662955e-07 -1.600281075760272e-06
lfoot -12.03696787903947 2.4759147506708767e-07 13.531438028874001
ltoes -39.254227556370914 7.200275052304352e-07 1.0909147855240156e-06
rhipjoint 1.1005675908711953e-07 6.870210827458292e-07 -1.494104084495789e-06
rfemur 4.291587147984724 4.372591910880606 8.397414494886258
rtibia -18.118021047111576 -9.759927446628801e-07 -2.1392207232024e-08
rfoot -6.419925746666296 1.2769071095200143e-06 -13.568691588154543
rtoes 4.5187707657235725 1.160296270456334e-06 4.7413286880812703e-07
lowerback 16.333178211318646 0.026255277185008766 2.192982924081157
upperback -0.6043892456675594 0.7085230568055143 -0.057919990821494904
thorax -10.838729009923915 0.19605365655455345 -1.4126200443071546
lowerneck -11.457395592112624 -2.029057957114028 -1.9248847656666397
upperneck 23.5797988923852 -3.0151462414105206 2.3060364286666197
head 9.370881229926802 -1.331763944747426 0.7745436119620046
lclavicle -1.4085775951116125e-07 5.4855408257763046e-08 -1.0938974842598547e-06
lhumerus -27.8769936256785 12.366954808410297 -22.67173207242117
lradius -6.510796717818261 -5.712193767931133e-07 -5.068460695955395e-07
lwrist -1.2904022284779015e-06 -52.66227821788864 3.111485247112106e-07
lhand -4.562975323145072 2.6246558075710764e-07 -26.656099019086014
lfingers 7.125022823272814 9.845282338726802e-08 3.18924141240953e-07
lthumb 21.213298854421275 -1.2803152392500461e-07 2.20318914769186
rclavicle 1.398304276268298e-07 4.3880174074018323e-07 -1.3740421654916584e-06
rhumerus -47.942856558030776 4.404160191450758 7.716998733732404
rradius 5.401463432921001 2.400377340319242e-07 -6.312440260746904e-07
rwrist 2.6760263456754533e-07 31.206741581910983 5.982028464885254e-07
rhand -6.972260092956778 2.0321462048512455e-07 -36.68780446630613
rfingers 7.125022396385991 5.1024341088409163e-08 -3.1892353057445414e-07
rthumb 18.897492480477187 1.5447771905696147e-06 -65.78980959509936
214
root -0.567874014377594 -0.567874014377594 -0.567874014377594 -0.5678755879732001 -0.5678755879732001 -0.5678755879732001
lhipjoint -9.671654586443837e-08 -1.5341245206083327e-07 1.0672170578144923e-06
lfemur -4.333781495356124 -3.609671733421229 -6.704853064308901
ltibia 3.3908888214746735 -1.756434606178903e-07 9.463061088214734e-07
lfoot -10.380564189267691 3.7399842254967566e-07 10.982565963655214
ltoes -31.360280819358284 1.2606167664414324e-06 8.640670407560577e-07
rhipjoint 1.1005675908711953e-07 6.870210827458292e-07 -1.494104084495789e-06
rfemur 0.22978170430524497 4.260194317898876 7.417188433888341
rtibia -7.9983180039459505 -3.2288868992917853e-07 -9.129851930899643e-07
rfoot -8.7300856886009 3.65888364334068e-06 -8.971714729547502
rtoes 3.1172432687936364 2.1332880981661598e-07 3.693692142663366e-07
lowerback 12.208838490445439 0.43144928276965966 2.764246072439272
upperback -1.810068005058256 1.282955412938515 -1.269486706782073
thorax -10.034255669101475 0.37903430435727603 -3.2432068981274806
lowerneck -11.457395592112624 -2.029057957114028 -1.9248847656666397
upperneck 23.5797988923852 -3.0151462414105206 2.3060364286666197
head 9.370881229926802 -1.331763944747426 0.7745436119620046
lclavicle -1.4085775951116125e-07 5.4855408257763046e-08 -1.0938974842598547e-06
lhumerus -34.053250239270476 11.792088521821588 -38.630214643609385
lradius -13.985591820940135 4.481766928303902e-07 -9.409326507426718e-07
lwrist -7.059615657627565e-07 -38.510484842553645 1.7022492771814304e-07
lhand -4.562975323145072 2.6246558075710764e-07 -26.656099019086014
lfingers 7.125022823272814 9.845282338726802e-08 3.18924141240953e-07
lthumb 21.213298854421275 -1.2803152392500461e-07 2.20318914769186
rclavicle 1.398304276268298e-07 4.3880174074018323e-07 -1.3740421654916584e-06
rhumerus -59.339290150480096 2.8857107415441936 11.601147168479297
rradius -2.3428500810759307 2.8345512976645834e-07 1.8001354275022115e-07
rwrist 3.3717887122411924e-07 36.56893526908582 7.537370592995817e-07
rhand -6.972260092956778 2.0321462048512455e-07 -36.68780446630613
rfingers 7.125022396385991 5.1024341088409163e-08 -3.1892353057445414e-07
rthumb 18.897492480477187 1.5447771905696147e-06 -65.78980959509936
215
root -0.567874014377594 -0.567874014377594 -0.567874014377594 -0.5678755879732001 -0.5678755879732001 -0.5678755879732001
lhipjoint -9.671654586443837e-08 -1.5341245206083327e-07 1.0672170578144923e-06
lfemur -4.074426405966046 -2.463143586181607 -3.5577091483196535
ltibia 4.755313450172631 -2.528379145141303e-07 1.2554926638496577e-07
lfoot -8.571930097048314 5.943429762159762e-07 7.475137466354021
ltoes -22.717347490793102 8.031251703932213e-07 3.7124187397390736e-07
rhipjoint 1.1005675908711953e-07 6.870210827458292e-07 -1.494104084495789e-06
rfemur -5.240149305764109 5.332671475147925 6.205239240674455
rtibia 5.916434083130574 2.501379543672546e-07 -1.6418112830134503e-06
rfoot -12.672429042623593 -1.7482699950893988e-07 -4.986531148390019
rtoes 0.09269934075562627 -8.471399251858093e-07 9.057192413645983e-09
lowerback 7.305774388147093 1.1394257109981614 3.1137477060424708
upperback -2.9288532045497564 2.189280107777364 -2.4870492482766515
thorax -8.594137603360965 0.7317453264575874 -5.0826583769951315
lowerneck -11.457395592112624 -2.029057957114028 -1.9248847656666397
upperneck 23.5797988923852 -3.0151462414105206 2.3060364286666197
head 9.370881229926802 -1.331763944747426 0.7745436119620046
lclavicle -1.4085775951116125e-07 5.4855408257763046e-08 -1.0938974842598547e-06
lhumerus -51.2803397034983 3.080198457169603 -51.48527269935536
lradius -11.983198068572191 -2.2013244883570313e-07 -7.85645859641396e-07
lwrist -1.8807524381245182e-07 -13.208948939664557 4.534911198143037e-08
lhand -4.562975323145072 2.6246558075710764e-07 -26.656099019086014
lfingers 7.125022823272814 9.845282338726802e-08 3.18924141240953e-07
lthumb 21.213298854421275 -1.2803152392500461e-07 2.20318914769186
rclavicle 1.398304276268298e-07 4.3880174074018323e-07 -1.3740421654916584e-06
rhumerus -77.49686311552793 3.5476555367482177 16.235243543904417
rradius -2.6333928814333447 2.0265014581803337e-06 1.5532536486845268e-07
rwrist 3.4216875440833625e-07 36.91694706767631 7.648882875682925e-07
rhand -6.972260092956778 2.0321462048512455e-07 -36.68780446630613
rfingers 7.125022396385991 5.1024341088409163e-08 -3.1892353057445414e-07
rthumb 18.897492480477187 1.5447771905696147e-06 -65.78980959509936
